<svg width="16" height="16" viewBox="0 0 16 16" fill="none" xmlns="http://www.w3.org/2000/svg">
<g id="radio_button_unchecked">
<path id="Vector" d="M8.00006 14.7667C7.07784 14.7667 6.20284 14.5889 5.37507 14.2333C4.54729 13.8778 3.82784 13.3944 3.21673 12.7833C2.60562 12.1722 2.12229 11.4556 1.76673 10.6333C1.41118 9.81111 1.2334 8.93333 1.2334 8C1.2334 7.06666 1.41118 6.18611 1.76673 5.35833C2.12229 4.53055 2.60562 3.81389 3.21673 3.20833C3.82784 2.60277 4.54451 2.12222 5.36673 1.76666C6.18895 1.41111 7.06673 1.23333 8.00006 1.23333C8.9334 1.23333 9.81395 1.41111 10.6417 1.76666C11.4695 2.12222 12.1862 2.60277 12.7917 3.20833C13.3973 3.81389 13.8778 4.52777 14.2334 5.35C14.589 6.17222 14.7667 7.05555 14.7667 8C14.7667 8.93333 14.589 9.81111 14.2334 10.6333C13.8778 11.4556 13.3973 12.1722 12.7917 12.7833C12.1862 13.3944 11.4723 13.8778 10.6501 14.2333C9.82784 14.5889 8.94451 14.7667 8.00006 14.7667ZM8.00006 13.6333C9.56673 13.6333 10.8973 13.0833 11.9917 11.9833C13.0862 10.8833 13.6334 9.55555 13.6334 8C13.6334 6.43333 13.0862 5.10277 11.9917 4.00833C10.8973 2.91389 9.56673 2.36666 8.00006 2.36666C6.44451 2.36666 5.11673 2.91389 4.01673 4.00833C2.91673 5.10277 2.36673 6.43333 2.36673 8C2.36673 9.55555 2.91673 10.8833 4.01673 11.9833C5.11673 13.0833 6.44451 13.6333 8.00006 13.6333Z" fill="#DC0A2D"/>
</g>
</svg>
